<?xml version="1.0" encoding="UTF-8" standalone="no"?>
<svg
   inkscape:version="1.3.2 (091e20e, 2023-11-25)"
   sodipodi:docname="glasses.svg"
   width="39.913509mm"
   height="17.035652mm"
   viewBox="0 0 39.913509 17.035653"
   version="1.1"
   id="svg886"
   xmlns:inkscape="http://www.inkscape.org/namespaces/inkscape"
   xmlns:sodipodi="http://sodipodi.sourceforge.net/DTD/sodipodi-0.dtd"
   xmlns="http://www.w3.org/2000/svg"
   xmlns:svg="http://www.w3.org/2000/svg"
   xmlns:rdf="http://www.w3.org/1999/02/22-rdf-syntax-ns#"
   xmlns:cc="http://creativecommons.org/ns#"
   xmlns:dc="http://purl.org/dc/elements/1.1/">
  <metadata
     id="metadata17">
    <rdf:RDF>
      <cc:Work
         rdf:about="">
        <dc:format>image/svg+xml</dc:format>
        <dc:type
           rdf:resource="http://purl.org/dc/dcmitype/StillImage" />
      </cc:Work>
    </rdf:RDF>
  </metadata>
  <sodipodi:namedview
     inkscape:current-layer="svg886"
     inkscape:window-maximized="0"
     inkscape:window-y="25"
     inkscape:window-x="2240"
     inkscape:cy="55.319711"
     inkscape:cx="177.45929"
     inkscape:zoom="2.5217052"
     fit-margin-bottom="0"
     fit-margin-right="0"
     fit-margin-left="0"
     fit-margin-top="0"
     showgrid="false"
     id="namedview15"
     inkscape:window-height="1212"
     inkscape:window-width="2056"
     inkscape:pageshadow="2"
     inkscape:pageopacity="0"
     guidetolerance="10"
     gridtolerance="10"
     objecttolerance="10"
     borderopacity="1"
     bordercolor="#666666"
     pagecolor="#ffffff"
     inkscape:showpageshadow="2"
     inkscape:pagecheckerboard="0"
     inkscape:deskcolor="#d1d1d1"
     inkscape:document-units="mm" />
  <defs
     id="defs880" />
  <path
     style="fill:#000000;stroke-width:0.264583"
     d="m 13.198453,16.395419 c -0.51197,-0.430799 -1.00032,-1.32809 -1.49288,-2.743064 -0.89291,-2.565021 -1.29153,-2.969726 -5.9889399,-6.0803864 -2.69031,-1.781547 -3.69643,-2.60341 -4.07656,-3.329992 -0.65422004,-1.250498 -0.95052004,-1.2213 -0.95052004,0.09367 0,0.582083 -0.10616,1.058333 -0.2359,1.058333 -0.69241,0 -0.55263,-3.356666 0.15103,-3.626682 0.66583004,-0.255506 2.54113004,0.673488 6.16484004,3.053974 l 3.5664299,2.342854 1.32836,-0.340926 c 3.23304,-0.829767 7.27315,-1.26629 12.04399,-1.301323 l 4.894796,-0.03594 2.513541,-1.082394 c 1.430139,-0.615854 2.342478,-1.140675 2.116667,-1.217608 -0.218281,-0.07437 -1.230312,-0.263633 -2.248958,-0.420591 -1.018646,-0.156958 -2.642016,-0.658111 -3.607491,-1.113673 -2.145715,-1.01246198 -2.726405,-0.91792498 -4.353005,0.708667 -1.29865,1.298651 -1.5556,1.401989 -1.81369,0.729414 -0.19375,-0.504899 0.19363,-0.854255 2.48506,-2.24115198 1.37955,-0.834975 1.57017,-0.876643 3.841189,-0.839642 2.256552,0.03677 5.868554,0.685156 10.591687,1.90131198 1.798087,0.462988 1.849392,0.499189 1.759773,1.24172 -0.167029,1.383895 -2.129121,6.058413 -2.971671,7.0797494 -1.004123,1.217194 -3.027013,2.285453 -4.695706,2.479733 -1.064665,0.123956 -1.31749,0.05661 -1.822516,-0.485462 -0.614804,-0.659904 -1.398005,-2.5790804 -1.398005,-3.4257084 0,-0.313685 -0.187817,-0.495902 -0.511146,-0.495902 -0.375949,0 -0.848326,0.644957 -1.785935,2.4384194 -0.70114,1.34113 -1.69617,2.863835 -2.21119,3.383788 -1.43838,1.45217 -5.88981,2.909045 -8.88848,2.909045 -1.35294,0 -1.77857,-0.113316 -2.40477,-0.640226 z m 6.48594,-1.077967 c 3.09316,-0.977127 3.77891,-1.528937 4.19711,-3.377316 0.40222,-1.777713 0.87707,-2.7778194 1.6518,-3.4789374 1.433866,-1.297631 0.22721,-1.918285 -3.54479,-1.823292 -4.30171,0.108334 -8.14182,1.243981 -8.8818,2.626636 -0.84104,1.5715114 -0.2316,5.8509064 0.91217,6.4050234 1.01453,0.491508 3.48004,0.338275 5.66551,-0.352114 z m 14.346792,-4.05876 c 0.507052,-0.266906 1.285488,-1.019267 1.729859,-1.6719124 0.813683,-1.19506 2.149313,-4.895614 1.86836,-5.176567 -0.08312,-0.08312 -0.751094,-0.208779 -1.484381,-0.279239 -1.120534,-0.107669 -1.608042,0.0072 -3.055559,0.71978 -2.190086,1.078176 -2.646601,1.753853 -2.59375,3.838941 0.0223,0.879491 0.168174,1.9264964 0.32418,2.3266784 0.240096,0.615886 0.437632,0.727604 1.286513,0.727604 0.551574,0 1.417725,-0.218378 1.924778,-0.485285 z"
     id="path1437" />
</svg>
