<?xml version="1.0" encoding="UTF-8" standalone="no"?>
<svg
   xmlns:dc="http://purl.org/dc/elements/1.1/"
   xmlns:cc="http://creativecommons.org/ns#"
   xmlns:rdf="http://www.w3.org/1999/02/22-rdf-syntax-ns#"
   xmlns:svg="http://www.w3.org/2000/svg"
   xmlns="http://www.w3.org/2000/svg"
   xmlns:sodipodi="http://sodipodi.sourceforge.net/DTD/sodipodi-0.dtd"
   xmlns:inkscape="http://www.inkscape.org/namespaces/inkscape"
   id="svg886"
   version="1.1"
   viewBox="0 0 57.275463 11.214177"
   height="11.214177mm"
   width="57.275463mm"
   sodipodi:docname="header.svg"
   inkscape:version="1.0 (4035a4fb49, 2020-05-01)">
  <metadata
     id="metadata17">
    <rdf:RDF>
      <cc:Work
         rdf:about="">
        <dc:format>image/svg+xml</dc:format>
        <dc:type
           rdf:resource="http://purl.org/dc/dcmitype/StillImage" />
        <dc:title></dc:title>
      </cc:Work>
    </rdf:RDF>
  </metadata>
  <sodipodi:namedview
     inkscape:document-rotation="0"
     pagecolor="#ffffff"
     bordercolor="#666666"
     borderopacity="1"
     objecttolerance="10"
     gridtolerance="10"
     guidetolerance="10"
     inkscape:pageopacity="0"
     inkscape:pageshadow="2"
     inkscape:window-width="1920"
     inkscape:window-height="1027"
     id="namedview15"
     showgrid="false"
     fit-margin-top="0"
     fit-margin-left="0"
     fit-margin-right="0"
     fit-margin-bottom="0"
     inkscape:zoom="1"
     inkscape:cx="189.61653"
     inkscape:cy="54.835538"
     inkscape:window-x="-8"
     inkscape:window-y="22"
     inkscape:window-maximized="1"
     inkscape:current-layer="svg886" />
  <defs
     id="defs880" />
  <g
     transform="matrix(0.59022215,0,0,0.59022215,74.789494,25.117192)"
     id="layer1">
    <path
       id="path1437"
       fill="currentColor"
       d="m -113.51569,-25.889372 c -0.51197,-0.430799 -1.00032,-1.32809 -1.49288,-2.743064 -0.89291,-2.565021 -1.29153,-2.969726 -5.98894,-6.080386 -2.69031,-1.781547 -3.69643,-2.60341 -4.07656,-3.329992 -0.65422,-1.250498 -0.95052,-1.2213 -0.95052,0.09367 0,0.582083 -0.10616,1.058333 -0.2359,1.058333 -0.69241,0 -0.55263,-3.356666 0.15103,-3.626682 0.66583,-0.255506 2.54113,0.673488 6.16484,3.053974 l 3.56643,2.342854 1.32836,-0.340926 c 3.23304,-0.829767 7.27315,-1.26629 12.04399,-1.301323 l 4.894796,-0.03594 2.513541,-1.082394 c 1.430139,-0.615854 2.342478,-1.140675 2.116667,-1.217608 -0.218281,-0.07437 -1.230312,-0.263633 -2.248958,-0.420591 -1.018646,-0.156958 -2.642016,-0.658111 -3.607491,-1.113673 -2.145715,-1.012462 -2.726405,-0.917925 -4.353005,0.708667 -1.29865,1.298651 -1.5556,1.401989 -1.81369,0.729414 -0.19375,-0.504899 0.19363,-0.854255 2.48506,-2.241152 1.37955,-0.834975 1.57017,-0.876643 3.841189,-0.839642 2.256552,0.03677 5.868554,0.685156 10.591687,1.901312 1.798087,0.462988 1.849392,0.499189 1.759773,1.24172 -0.167029,1.383895 -2.129121,6.058413 -2.971671,7.079749 -1.004123,1.217194 -3.027013,2.285453 -4.695706,2.479733 -1.064665,0.123956 -1.31749,0.05661 -1.822516,-0.485462 -0.614804,-0.659904 -1.398005,-2.57908 -1.398005,-3.425708 0,-0.313685 -0.187817,-0.495902 -0.511146,-0.495902 -0.375949,0 -0.848326,0.644957 -1.785935,2.438419 -0.70114,1.34113 -1.69617,2.863835 -2.21119,3.383788 -1.43838,1.45217 -5.88981,2.909045 -8.88848,2.909045 -1.35294,0 -1.77857,-0.113316 -2.40477,-0.640226 z m 6.48594,-1.077967 c 3.09316,-0.977127 3.77891,-1.528937 4.19711,-3.377316 0.40222,-1.777713 0.87707,-2.777819 1.6518,-3.478937 1.433866,-1.297631 0.22721,-1.918285 -3.54479,-1.823292 -4.30171,0.108334 -8.14182,1.243981 -8.8818,2.626636 -0.84104,1.571511 -0.2316,5.850906 0.91217,6.405023 1.01453,0.491508 3.48004,0.338275 5.66551,-0.352114 z m 14.346792,-4.05876 c 0.507052,-0.266906 1.285488,-1.019267 1.729859,-1.671912 0.813683,-1.19506 2.149313,-4.895614 1.86836,-5.176567 -0.08312,-0.08312 -0.751094,-0.208779 -1.484381,-0.279239 -1.120534,-0.107669 -1.608042,0.0072 -3.055559,0.71978 -2.190086,1.078176 -2.646601,1.753853 -2.59375,3.838941 0.0223,0.879491 0.168174,1.926496 0.32418,2.326678 0.240096,0.615886 0.437632,0.727604 1.286513,0.727604 0.551574,0 1.417725,-0.218378 1.924778,-0.485285 z"
       style="stroke-width:0.264583" />
    <g
       transform="translate(0,0.17881722)"
       id="g1463">
      <g
         aria-label="FRAN"
         transform="matrix(0.29024693,0,0,0.29024693,7.3285315,0.60683711)"
         id="flowRoot1439"
         fill="currentColor"
         style="font-style:normal;font-weight:normal;font-size:40px;line-height:1.25;font-family:sans-serif;letter-spacing:0px;word-spacing:0px;fill-opacity:0.996078;stroke:none">
        <path
           d="m -315.68492,-148.24507 h 13.44 v 2.08 h -11.24 v 9.72 h 10.84 v 2.08 h -10.84 v 14.12 h -2.2 z"
           fill="currentColor"
           style="font-style:normal;font-variant:normal;font-weight:normal;font-stretch:normal;font-family:'Jost*';-inkscape-font-specification:'Jost*';"
           id="path869" />
        <path
           d="m -296.46617,-148.24507 h 6.4 q 2.72,0 4.84,0.96 2.16,0.96 3.4,2.8 1.24,1.8 1.24,4.36 0,3.4 -2.16,5.48 -2.12,2.08 -5.44,2.52 l 8.48,11.88 h -2.72 l -8.16,-11.76 h -3.68 v 11.76 h -2.2 z m 6.4,1.96 h -4.2 v 12.32 h 4.2 q 3.2,0 5.24,-1.56 2.04,-1.56 2.04,-4.6 0,-3 -2.04,-4.56 -2.04,-1.6 -5.24,-1.6 z"
           fill="currentColor"
           style="font-style:normal;font-variant:normal;font-weight:normal;font-stretch:normal;font-family:'Jost*';-inkscape-font-specification:'Jost*';"
           id="path871" />
        <path
           d="m -256.28867,-120.24507 -3.84,-9.4 h -12.08 l -3.84,9.4 h -2.48 l 12.36,-29.08 12.36,29.08 z m -9.88,-24 -5.16,12.52 h 10.36 z"
           fill="currentColor"
           style="font-style:normal;font-variant:normal;font-weight:normal;font-stretch:normal;font-family:'Jost*';-inkscape-font-specification:'Jost*';"
           id="path873" />
        <path
           d="m -228.77992,-148.24507 h 2.2 v 29.08 l -21.28,-24.44 v 23.36 h -2.2 v -29.08 l 21.28,24.52 z"
           fill="currentColor"
           style="font-style:normal;font-variant:normal;font-weight:normal;font-stretch:normal;font-family:'Jost*';-inkscape-font-specification:'Jost*';"
           id="path875" />
      </g>
      <g
         aria-label="DIEGUEZ"
         transform="matrix(0.29024693,0,0,0.29024693,7.3639622,11.391042)"
         id="flowRoot1453"
         fill="currentColor"
         style="font-style:normal;font-variant:normal;font-weight:normal;font-stretch:normal;font-size:43.7558px;line-height:1;font-family:'URW Gothic';-inkscape-font-specification:'URW Gothic';letter-spacing:-0.045579px;word-spacing:-1.0939px;fill-opacity:0.996078;stroke:none">
        <path
           d="m -304.86804,-122.28801 h -10.93895 v -30.62906 h 10.93895 q 5.03191,0 8.7074,1.8815 3.67549,1.83774 5.68825,5.29445 2.01277,3.41295 2.01277,8.13858 0,4.72562 -2.01277,8.18233 -2.01276,3.41295 -5.68825,5.29445 -3.67549,1.83775 -8.7074,1.83775 z m -0.26254,-24.06569 h -3.0629 v 17.50232 h 3.0629 q 2.36282,0 4.41934,-0.78761 2.05652,-0.83136 3.32544,-2.75661 1.26892,-1.92526 1.26892,-5.20694 0,-3.28169 -1.26892,-5.20694 -1.26892,-1.92526 -3.32544,-2.71286 -2.05652,-0.83136 -4.41934,-0.83136 z"
           fill="currentColor"
           style="font-style:normal;font-variant:normal;font-weight:bold;font-stretch:normal;font-size:43.7558px;font-family:'Jost*';-inkscape-font-specification:'Jost*';baseline-shift:baseline;fill-opacity:0.996078"
           id="path854" />
        <path
           d="m -283.80487,-152.91707 h 7.526 v 30.62906 h -7.526 z"
           fill="currentColor"
           style="font-style:normal;font-variant:normal;font-weight:bold;font-stretch:normal;font-size:43.7558px;font-family:'Jost*';-inkscape-font-specification:'Jost*';baseline-shift:baseline;fill-opacity:0.996078"
           id="path856" />
        <path
           d="m -269.83492,-152.91707 h 20.34645 v 6.08205 h -13.25801 v 5.46948 h 12.38289 v 5.95079 h -12.38289 v 7.04468 h 13.25801 v 6.08206 h -20.34645 z"
           fill="currentColor"
           style="font-style:normal;font-variant:normal;font-weight:bold;font-stretch:normal;font-size:43.7558px;font-family:'Jost*';-inkscape-font-specification:'Jost*';baseline-shift:baseline;fill-opacity:0.996078"
           id="path858" />
        <path
           d="m -228.28993,-133.35823 v -5.68826 h 15.48955 q 0.17503,3.63174 -0.7876,6.86966 -0.91887,3.19418 -2.93164,5.6445 -2.01277,2.45033 -5.03192,3.85051 -3.01915,1.35643 -6.91341,1.35643 -4.90065,0 -8.66365,-2.05652 -3.763,-2.05652 -5.95079,-5.68825 -2.14403,-3.67549 -2.14403,-8.53238 0,-3.63174 1.26891,-6.56337 1.26892,-2.9754 3.58798,-5.07568 2.31906,-2.10027 5.38196,-3.23793 3.10667,-1.13765 6.78215,-1.13765 4.8569,0 8.22609,2.05653 3.41295,2.01276 5.60074,5.20694 l -6.56337,3.41295 q -1.05013,-1.83775 -2.80037,-3.01915 -1.75023,-1.22516 -4.46309,-1.22516 -2.53783,0 -4.68187,1.13765 -2.10028,1.13765 -3.36919,3.28168 -1.22517,2.14404 -1.22517,5.16319 0,3.01915 1.18141,5.25069 1.22516,2.18779 3.28168,3.41295 2.10028,1.18141 4.81314,1.18141 3.3692,0 5.29445,-1.57521 1.96901,-1.61896 2.75662,-4.02553 z"
           fill="currentColor"
           style="font-style:normal;font-variant:normal;font-weight:bold;font-stretch:normal;font-size:43.7558px;font-family:'Jost*';-inkscape-font-specification:'Jost*';baseline-shift:baseline;fill-opacity:0.996078"
           id="path860" />
        <path
           d="m -208.1005,-152.91707 h 7.39473 v 20.04015 q 0,2.31906 1.22516,3.763 1.22516,1.44394 3.67549,1.44394 2.49408,0 3.71924,-1.44394 1.22516,-1.44394 1.22516,-3.763 v -20.04015 h 7.39473 v 20.56522 q 0,3.85051 -1.66272,6.38835 -1.61896,2.49408 -4.41933,3.71924 -2.80037,1.22516 -6.25708,1.22516 -3.41295,0 -6.21333,-1.22516 -2.80037,-1.22516 -4.46309,-3.71924 -1.61896,-2.53784 -1.61896,-6.38835 z"
           fill="currentColor"
           style="font-style:normal;font-variant:normal;font-weight:bold;font-stretch:normal;font-size:43.7558px;font-family:'Jost*';-inkscape-font-specification:'Jost*';baseline-shift:baseline;fill-opacity:0.996078"
           id="path862" />
        <path
           d="m -177.24696,-152.91707 h 20.34644 v 6.08205 h -13.25801 v 5.46948 h 12.3829 v 5.95079 h -12.3829 v 7.04468 h 13.25801 v 6.08206 h -20.34644 z"
           fill="currentColor"
           style="font-style:normal;font-variant:normal;font-weight:bold;font-stretch:normal;font-size:43.7558px;font-family:'Jost*';-inkscape-font-specification:'Jost*';baseline-shift:baseline;fill-opacity:0.996078"
           id="path864" />
        <path
           d="m -151.62909,-146.30995 v -6.60712 h 24.02193 l -14.48316,24.28446 h 12.90796 v 6.3446 h -24.54701 l 14.26439,-24.02194 z"
           fill="currentColor"
           style="font-style:normal;font-variant:normal;font-weight:bold;font-stretch:normal;font-size:43.7558px;font-family:'Jost*';-inkscape-font-specification:'Jost*';baseline-shift:baseline;fill-opacity:0.996078"
           id="path866" />
      </g>
    </g>
  </g>
</svg>
