<?xml version="1.0" encoding="UTF-8" standalone="no"?>
<svg
   id="svg886"
   version="1.1"
   viewBox="0 0 60 60.000001"
   height="60mm"
   width="60mm"
   sodipodi:docname="favicon.svg"
   inkscape:version="1.3.2 (091e20e, 2023-11-25)"
   xmlns:inkscape="http://www.inkscape.org/namespaces/inkscape"
   xmlns:sodipodi="http://sodipodi.sourceforge.net/DTD/sodipodi-0.dtd"
   xmlns="http://www.w3.org/2000/svg"
   xmlns:svg="http://www.w3.org/2000/svg"
   xmlns:rdf="http://www.w3.org/1999/02/22-rdf-syntax-ns#"
   xmlns:cc="http://creativecommons.org/ns#"
   xmlns:dc="http://purl.org/dc/elements/1.1/">
  <metadata
     id="metadata17">
    <rdf:RDF>
      <cc:Work
         rdf:about="">
        <dc:format>image/svg+xml</dc:format>
        <dc:type
           rdf:resource="http://purl.org/dc/dcmitype/StillImage" />
      </cc:Work>
    </rdf:RDF>
  </metadata>
  <sodipodi:namedview
     inkscape:document-rotation="0"
     pagecolor="#ffffff"
     bordercolor="#666666"
     borderopacity="1"
     objecttolerance="10"
     gridtolerance="10"
     guidetolerance="10"
     inkscape:pageopacity="0"
     inkscape:pageshadow="2"
     inkscape:window-width="2560"
     inkscape:window-height="1435"
     id="namedview15"
     showgrid="false"
     fit-margin-top="0"
     fit-margin-left="0"
     fit-margin-right="0"
     fit-margin-bottom="0"
     inkscape:zoom="3.5883554"
     inkscape:cx="142.26573"
     inkscape:cy="92.800173"
     inkscape:window-x="2196"
     inkscape:window-y="125"
     inkscape:window-maximized="0"
     inkscape:current-layer="svg886"
     inkscape:showpageshadow="2"
     inkscape:pagecheckerboard="0"
     inkscape:deskcolor="#d1d1d1"
     inkscape:document-units="mm" />
  <defs
     id="defs880" />
  <path
     id="path1437"
     d="M 20.282135,39.941478 C 19.556672,39.331032 18.864676,38.059566 18.166716,36.05454 16.901457,32.419891 16.336611,31.846422 9.6803544,27.438599 5.8681702,24.914137 4.4424923,23.749552 3.903846,22.719981 2.9768126,20.948018 2.5569538,20.989391 2.5569538,22.852712 c 0,0.824814 -0.1504294,1.499664 -0.3342716,1.499664 -0.9811489,0 -0.7830798,-4.756415 0.2140104,-5.139029 0.9434848,-0.362053 3.6007955,0.954336 8.7356134,4.327498 l 5.053651,3.319838 1.882293,-0.483094 c 4.581237,-1.175784 10.306094,-1.794341 17.066403,-1.843982 l 6.935953,-0.05092 3.561701,-1.533759 c 2.026516,-0.872668 3.319306,-1.616343 2.999329,-1.725357 -0.309304,-0.105385 -1.743358,-0.373572 -3.186786,-0.595982 -1.443426,-0.222411 -3.74375,-0.932548 -5.111835,-1.578081 -3.040489,-1.434664 -3.863332,-1.300705 -6.168232,1.004184 -1.840195,1.840197 -2.204293,1.986628 -2.57001,1.033585 -0.274543,-0.715445 0.274376,-1.210485 3.521346,-3.175726 1.95483,-1.183164 2.224939,-1.242207 5.442984,-1.189777 3.197547,0.0521 8.315775,0.97087 15.008482,2.694169 2.547897,0.656058 2.620599,0.707355 2.493608,1.759525 -0.23667,1.960988 -3.016977,8.584806 -4.210874,10.032045 -1.422848,1.72477 -4.289297,3.2385 -6.653843,3.513796 -1.508637,0.175647 -1.866891,0.08022 -2.582514,-0.687903 -0.871181,-0.935088 -1.980983,-3.654571 -1.980983,-4.854247 0,-0.444493 -0.266137,-0.702696 -0.724297,-0.702696 -0.532721,0 -1.202081,0.913907 -2.530679,3.455253 -0.993518,1.900389 -2.403482,4.058071 -3.133268,4.794846 -2.038193,2.057734 -8.345896,4.122134 -12.595027,4.122134 -1.917123,0 -2.520243,-0.160565 -3.407573,-0.907204 z m 9.190614,-1.527486 c 4.383024,-1.384594 5.354736,-2.166513 5.947328,-4.785676 0.569948,-2.51903 1.242813,-3.936185 2.34061,-4.929673 2.031798,-1.838751 0.321957,-2.718221 -5.022986,-2.583615 -6.095548,0.153509 -11.537006,1.762727 -12.585561,3.721958 -1.191758,2.226839 -0.328179,8.290767 1.29255,9.075954 1.437595,0.696469 4.931235,0.479337 8.028059,-0.498948 z m 20.329484,-5.751286 c 0.718498,-0.378207 1.821545,-1.444307 2.45122,-2.369108 1.152995,-1.693407 3.045588,-6.937114 2.647478,-7.335226 -0.117783,-0.117781 -1.064306,-0.295841 -2.103377,-0.395683 -1.587803,-0.152568 -2.278604,0.0102 -4.329743,1.019932 -3.103366,1.527782 -3.750249,2.485221 -3.675359,5.439802 0.0316,1.246243 0.238303,2.729855 0.459364,3.296915 0.340217,0.872715 0.620127,1.03102 1.822998,1.03102 0.781582,0 2.008923,-0.309443 2.727419,-0.687652 z"
     style="fill:#000000;stroke-width:0.075;stroke:#ffffff;stroke-opacity:1;stroke-dasharray:none" />
</svg>
