<svg xmlns="http://www.w3.org/2000/svg" viewBox="0 0 57.275 11.214" height="42.384" width="216.474"><g fill="currentColor"><path d="M7.79 9.837c-.302-.255-.59-.784-.881-1.62-.527-1.513-.762-1.752-3.535-3.588C1.786 3.577 1.192 3.092.968 2.663c-.386-.738-.561-.72-.561.056 0 .343-.063.624-.14.624-.408 0-.325-1.98.09-2.14.393-.15 1.5.397 3.639 1.802L6.1 4.388l.784-.201c1.908-.49 4.292-.747 7.108-.768l2.89-.021 1.483-.64c.844-.363 1.382-.672 1.249-.718-.129-.044-.726-.155-1.327-.248-.602-.093-1.56-.388-2.13-.657-1.266-.598-1.609-.542-2.569.418-.766.766-.918.827-1.07.43-.115-.298.114-.504 1.466-1.322.815-.493.927-.518 2.268-.496 1.331.022 3.463.404 6.251 1.122 1.061.274 1.092.295 1.039.733-.099.817-1.257 3.576-1.754 4.179-.593.718-1.787 1.349-2.772 1.463-.628.074-.777.034-1.075-.286-.363-.39-.826-1.522-.826-2.022 0-.185-.11-.293-.301-.293-.222 0-.501.38-1.054 1.44-.414.791-1.001 1.69-1.305 1.997-.85.857-3.477 1.717-5.247 1.717-.798 0-1.05-.067-1.419-.378zm3.828-.637c1.826-.576 2.23-.902 2.477-1.993.238-1.05.518-1.64.975-2.053.847-.766.134-1.132-2.092-1.076-2.539.064-4.805.734-5.242 1.55-.497.927-.137 3.453.538 3.78.6.29 2.054.2 3.344-.208zm8.468-2.395c.3-.158.759-.602 1.021-.987.48-.705 1.269-2.89 1.103-3.055-.05-.05-.444-.123-.876-.165-.662-.064-.95.004-1.804.425-1.293.636-1.562 1.035-1.53 2.266.012.519.099 1.137.19 1.373.142.363.259.43.76.43.325 0 .837-.13 1.136-.287z"></path></g><g font-family="Jost*" fill-opacity=".996"><g aria-label="FRAN" font-weight="400" font-size="40" letter-spacing="0" word-spacing="0" fill="currentColor"><path d="M25.035.185h2.302v.356h-1.925v1.665h1.857v.357h-1.857v2.419h-.377zM28.327.185h1.097q.466 0 .829.164.37.165.582.48.213.308.213.747 0 .583-.37.939-.364.356-.932.432l1.452 2.035h-.466l-1.397-2.015h-.63v2.015h-.378zm1.097.336h-.72v2.11h.72q.548 0 .897-.267.35-.267.35-.788 0-.514-.35-.781-.35-.274-.897-.274zM35.21 4.982l-.658-1.61h-2.07l-.657 1.61H31.4L33.518 0l2.117 4.982zM33.518.87l-.884 2.145h1.774zM39.923.185h.377v4.982L36.654.98v4.002h-.377V0l3.646 4.2z"></path></g><g aria-label="DIEGUEZ" font-weight="700" font-size="43.756" letter-spacing="-.046" word-spacing="-1.094" fill="currentColor"><path d="M26.909 10.997h-1.874V5.75h1.874q.862 0 1.492.322.63.315.974.907.345.585.345 1.394 0 .81-.345 1.402-.345.585-.974.907-.63.315-1.492.315zm-.045-4.123h-.525v2.998h.525q.405 0 .757-.134.352-.143.57-.473.217-.33.217-.892t-.217-.892q-.218-.33-.57-.464-.352-.143-.757-.143zM30.517 5.75h1.29v5.247h-1.29zM32.91 5.75h3.486v1.042h-2.271v.937h2.121v1.02h-2.121v1.206h2.271v1.042H32.91zM40.027 9.1v-.974h2.654q.03.622-.135 1.177-.157.547-.502.967-.345.42-.862.66-.517.232-1.185.232-.839 0-1.484-.353-.644-.352-1.02-.974-.366-.63-.366-1.462 0-.622.217-1.124.217-.51.615-.87.397-.36.922-.554.532-.195 1.161-.195.833 0 1.41.352.584.345.96.892l-1.125.585q-.18-.315-.48-.517-.3-.21-.765-.21-.434 0-.802.195-.36.194-.577.562-.21.367-.21.884t.203.9q.21.375.562.584.36.203.824.203.578 0 .907-.27.338-.277.473-.69zM43.486 5.75h1.267v3.433q0 .397.21.644.21.248.63.248.427 0 .637-.248.21-.247.21-.644V5.75h1.266v3.523q0 .66-.285 1.094-.277.427-.757.637-.48.21-1.072.21-.584 0-1.064-.21-.48-.21-.765-.637-.277-.435-.277-1.094zM48.772 5.75h3.485v1.042h-2.271v.937h2.121v1.02h-2.121v1.206h2.271v1.042h-3.485zM53.16 6.882V5.75h4.115l-2.48 4.16h2.21v1.087H52.8l2.444-4.115z"></path></g></g></svg>
