<?xml version="1.0" encoding="UTF-8"?>
<svg width="88.22mm" height="19.073mm" version="1.1" viewBox="0 0 88.21965 19.072874">
<metadata>
<rdf:RDF>
<cc:Work rdf:about="">
<dc:format>image/svg+xml</dc:format>
<dc:type rdf:resource="http://purl.org/dc/dcmitype/StillImage"/>
<dc:title/>
</cc:Work>
</rdf:RDF>
</metadata>
<g transform="translate(126.71 42.285)">
<path d="m-113.52-25.889c-0.51197-0.4308-1.0003-1.3281-1.4929-2.7431-0.89291-2.565-1.2915-2.9697-5.9889-6.0804-2.6903-1.7815-3.6964-2.6034-4.0766-3.33-0.65422-1.2505-0.95052-1.2213-0.95052 0.09367 0 0.58208-0.10616 1.0583-0.2359 1.0583-0.69241 0-0.55263-3.3567 0.15103-3.6267 0.66583-0.25551 2.5411 0.67349 6.1648 3.054l3.5664 2.3429 1.3284-0.34093c3.233-0.82977 7.2732-1.2663 12.044-1.3013l4.8948-0.03594 2.5135-1.0824c1.4301-0.61585 2.3425-1.1407 2.1167-1.2176-0.21828-0.07437-1.2303-0.26363-2.249-0.42059s-2.642-0.65811-3.6075-1.1137c-2.1457-1.0125-2.7264-0.91792-4.353 0.70867-1.2986 1.2987-1.5556 1.402-1.8137 0.72941-0.19375-0.5049 0.19363-0.85426 2.4851-2.2412 1.3796-0.83498 1.5702-0.87664 3.8412-0.83964 2.2566 0.03677 5.8686 0.68516 10.592 1.9013 1.7981 0.46299 1.8494 0.49919 1.7598 1.2417-0.16703 1.3839-2.1291 6.0584-2.9717 7.0797-1.0041 1.2172-3.027 2.2855-4.6957 2.4797-1.0647 0.12396-1.3175 0.05661-1.8225-0.48546-0.6148-0.6599-1.398-2.5791-1.398-3.4257 0-0.31368-0.18782-0.4959-0.51115-0.4959-0.37595 0-0.84833 0.64496-1.7859 2.4384-0.70114 1.3411-1.6962 2.8638-2.2112 3.3838-1.4384 1.4522-5.8898 2.909-8.8885 2.909-1.3529 0-1.7786-0.11332-2.4048-0.64023zm6.4859-1.078c3.0932-0.97713 3.7789-1.5289 4.1971-3.3773 0.40222-1.7777 0.87707-2.7778 1.6518-3.4789 1.4339-1.2976 0.22721-1.9183-3.5448-1.8233-4.3017 0.10833-8.1418 1.244-8.8818 2.6266-0.84104 1.5715-0.2316 5.8509 0.91217 6.405 1.0145 0.49151 3.48 0.33828 5.6655-0.35211zm14.347-4.0588c0.50705-0.26691 1.2855-1.0193 1.7299-1.6719 0.81368-1.1951 2.1493-4.8956 1.8684-5.1766-0.08312-0.08312-0.75109-0.20878-1.4844-0.27924-1.1205-0.10767-1.608 0.0072-3.0556 0.71978-2.1901 1.0782-2.6466 1.7539-2.5938 3.8389 0.0223 0.87949 0.16817 1.9265 0.32418 2.3267 0.2401 0.61589 0.43763 0.7276 1.2865 0.7276 0.55157 0 1.4177-0.21838 1.9248-0.48528z" stroke-width=".26458"/>
<g transform="translate(0 .17882)" fill-opacity=".99608">
<g transform="matrix(.29025 0 0 .29025 7.9 1.3369)" fill="#00aeef" aria-label="FRAN">
<path d="m-316-121.35h2.96v-13.52h11.6v-2.68h-11.6v-10.68h12.04v-2.68h-15z"/>
<path d="m-285.31-132.39c5.68-0.6 8.72-3.72 8.72-9.04 0-3.68-1.56-6.48-4.44-8.04-1.84-1-4.36-1.44-8.28-1.44h-7.32v29.56h2.96v-26.88h4.16c3.12 0 5.2 0.32 6.8 1.08 2 0.96 3.12 2.96 3.12 5.64 0 3.36-1.52 5.48-4.48 6.24-1.4 0.36-3.32 0.52-6.6 0.52l9.96 13.4h3.68z"/>
<path d="m-274.39-121.35h3.12l4.32-9.96h13.76l4.28 9.96h3.24l-12.72-29.56h-3.32zm8.56-12.64 5.8-13.56 5.68 13.56z"/>
<path d="m-242.18-121.35h2.96v-26l17.6 26h2.96v-29.56h-2.96v24.52l-16.56-24.52h-4z"/>
</g>
<g transform="matrix(.29025 0 0 .29025 7.9 11.92)" aria-label="DIEGUEZ">
<path d="m-316.32-122.18h6.88c4.48 0 7.16-0.44 9.56-1.64 4.56-2.24 7.24-7.12 7.24-13.08 0-5.64-2.32-10.24-6.44-12.72-2.32-1.4-5.84-2.12-10.48-2.12h-6.76zm5.48-5.24v-19.08h1.08c3.52 0 5.36 0.32 7.08 1.2 2.8 1.44 4.52 4.6 4.52 8.4 0 3.56-1.64 6.72-4.28 8.16-1.64 0.88-3.92 1.32-7.2 1.32z"/>
<path d="m-288.36-122.18h5.48v-29.56h-5.48z"/>
<path d="m-277.18-122.18h15.88v-5.24h-10.4v-6.88h9.96v-5.24h-9.96v-6.96h10.4v-5.24h-15.88z"/>
<path d="m-245.72-132.14h12.24c-1.56 3.28-4.76 5.2-8.68 5.2-5.8 0-10.24-4.32-10.24-10 0-2.56 1.08-5.36 2.76-7.16 1.72-1.84 4.32-2.88 7.16-2.88 3.44 0 6.32 1.4 8.12 3.92h6.44c-1.92-5.32-8-9.2-14.44-9.2-8.68 0-15.56 6.72-15.56 15.24 0 8.68 7 15.36 16.08 15.36 4.48 0 8.28-1.56 11.2-4.56 2.72-2.84 4.24-6.52 4.24-10.32v-0.72h-19.32z"/>
<path d="m-222.81-151.74v18.72c0 3.16 0.48 5.2 1.6 6.96 1.72 2.72 4.92 4.4 8.36 4.4 3.24 0 6.24-1.44 8-3.8 1.4-1.92 2-4.12 2-7.56v-18.72h-5.48v18.72c0 2.2-0.16 3.12-0.72 4.08-0.76 1.24-2.16 2-3.8 2-1.6 0-3-0.76-3.76-2-0.56-0.96-0.72-1.88-0.72-4.08v-18.72z"/>
<path d="m-197.18-122.18h15.88v-5.24h-10.4v-6.88h9.96v-5.24h-9.96v-6.96h10.4v-5.24h-15.88z"/>
<path d="m-178.32-126.82v4.64h18.48v-5.24h-11.88l11.12-19.4v-4.92h-17.12v5.24h10.6z"/>
</g>
</g>
</g>
</svg>
